<svg width="24" height="23" viewBox="0 0 24 23" fill="none" xmlns="http://www.w3.org/2000/svg">
<path d="M20 14.7692C18.75 14.7692 17.55 14.5802 16.43 14.2306C16.08 14.1266 15.69 14.2022 15.41 14.4574L13.21 16.5365C10.38 15.1756 8.06 12.9925 6.62 10.3086L8.82 8.22001C9.1 7.9743 9.18 7.60572 9.07 7.27496C8.7 6.21649 8.5 5.08243 8.5 3.90111C8.5 3.38133 8.05 2.95605 7.5 2.95605H4C3.45 2.95605 3 3.38133 3 3.90111C3 12.7752 10.61 19.967 20 19.967C20.55 19.967 21 19.5418 21 19.022V15.7143C21 15.1945 20.55 14.7692 20 14.7692ZM19 11.4615H21C21 6.76463 16.97 2.95605 12 2.95605V4.84616C15.87 4.84616 19 7.80419 19 11.4615ZM15 11.4615H17C17 8.8532 14.76 6.73627 12 6.73627V8.62638C13.66 8.62638 15 9.89276 15 11.4615Z" fill="#1B1D1F"/>
</svg>
